<mxfile host="app.diagrams.net" agent="Mozilla/5.0 (Windows NT 10.0; Win64; x64) AppleWebKit/537.36 (KHTML, like Gecko) Chrome/128.0.0.0 Safari/537.36 OPR/114.0.0.0" version="25.0.3">
  <diagram name="1 oldal" id="QDB9F2nAUCe8czqC7DOm">
    <mxGraphModel dx="2213" dy="2433" grid="1" gridSize="10" guides="1" tooltips="1" connect="1" arrows="1" fold="1" page="1" pageScale="1" pageWidth="827" pageHeight="1169" math="0" shadow="0">
      <root>
        <mxCell id="0" />
        <mxCell id="1" parent="0" />
        <mxCell id="yOpnhEGQ9VkILIJW0f1h-3" value="" style="group" vertex="1" connectable="0" parent="1">
          <mxGeometry x="340" y="-140" width="120" height="80" as="geometry" />
        </mxCell>
        <mxCell id="yOpnhEGQ9VkILIJW0f1h-1" value="" style="ellipse;whiteSpace=wrap;html=1;" vertex="1" parent="yOpnhEGQ9VkILIJW0f1h-3">
          <mxGeometry width="120" height="80" as="geometry" />
        </mxCell>
        <mxCell id="yOpnhEGQ9VkILIJW0f1h-2" value="Bejelentkezés" style="text;html=1;align=center;verticalAlign=middle;whiteSpace=wrap;rounded=0;" vertex="1" parent="yOpnhEGQ9VkILIJW0f1h-3">
          <mxGeometry x="30" y="25" width="60" height="30" as="geometry" />
        </mxCell>
        <mxCell id="yOpnhEGQ9VkILIJW0f1h-6" value="Bejelentkezett&amp;nbsp;&lt;div&gt;&lt;span style=&quot;background-color: initial;&quot;&gt;felhasználó&lt;/span&gt;&lt;/div&gt;" style="shape=umlActor;verticalLabelPosition=bottom;verticalAlign=top;html=1;outlineConnect=0;" vertex="1" parent="1">
          <mxGeometry x="60" y="640" width="30" height="60" as="geometry" />
        </mxCell>
        <mxCell id="yOpnhEGQ9VkILIJW0f1h-7" value="" style="group" vertex="1" connectable="0" parent="1">
          <mxGeometry x="340" y="-40" width="120" height="80" as="geometry" />
        </mxCell>
        <mxCell id="yOpnhEGQ9VkILIJW0f1h-8" value="" style="ellipse;whiteSpace=wrap;html=1;" vertex="1" parent="yOpnhEGQ9VkILIJW0f1h-7">
          <mxGeometry width="120" height="80" as="geometry" />
        </mxCell>
        <mxCell id="yOpnhEGQ9VkILIJW0f1h-9" value="Regisztráció" style="text;html=1;align=center;verticalAlign=middle;whiteSpace=wrap;rounded=0;" vertex="1" parent="yOpnhEGQ9VkILIJW0f1h-7">
          <mxGeometry x="30" y="25" width="60" height="30" as="geometry" />
        </mxCell>
        <mxCell id="yOpnhEGQ9VkILIJW0f1h-10" value="" style="group" vertex="1" connectable="0" parent="1">
          <mxGeometry x="90" y="310" width="120" height="80" as="geometry" />
        </mxCell>
        <mxCell id="yOpnhEGQ9VkILIJW0f1h-11" value="" style="ellipse;whiteSpace=wrap;html=1;" vertex="1" parent="yOpnhEGQ9VkILIJW0f1h-10">
          <mxGeometry width="120" height="80" as="geometry" />
        </mxCell>
        <mxCell id="yOpnhEGQ9VkILIJW0f1h-12" value="Beállítások módosítása" style="text;html=1;align=center;verticalAlign=middle;whiteSpace=wrap;rounded=0;" vertex="1" parent="yOpnhEGQ9VkILIJW0f1h-10">
          <mxGeometry x="30" y="25" width="60" height="30" as="geometry" />
        </mxCell>
        <mxCell id="yOpnhEGQ9VkILIJW0f1h-13" value="" style="group" vertex="1" connectable="0" parent="1">
          <mxGeometry x="340" y="90" width="120" height="80" as="geometry" />
        </mxCell>
        <mxCell id="yOpnhEGQ9VkILIJW0f1h-14" value="" style="ellipse;whiteSpace=wrap;html=1;" vertex="1" parent="yOpnhEGQ9VkILIJW0f1h-13">
          <mxGeometry width="120" height="80" as="geometry" />
        </mxCell>
        <mxCell id="yOpnhEGQ9VkILIJW0f1h-15" value="Madarak megtekintése" style="text;html=1;align=center;verticalAlign=middle;whiteSpace=wrap;rounded=0;" vertex="1" parent="yOpnhEGQ9VkILIJW0f1h-13">
          <mxGeometry x="30" y="25" width="60" height="30" as="geometry" />
        </mxCell>
        <mxCell id="yOpnhEGQ9VkILIJW0f1h-16" value="" style="group" vertex="1" connectable="0" parent="1">
          <mxGeometry x="340" y="330" width="120" height="80" as="geometry" />
        </mxCell>
        <mxCell id="yOpnhEGQ9VkILIJW0f1h-17" value="" style="ellipse;whiteSpace=wrap;html=1;" vertex="1" parent="yOpnhEGQ9VkILIJW0f1h-16">
          <mxGeometry width="120" height="80" as="geometry" />
        </mxCell>
        <mxCell id="yOpnhEGQ9VkILIJW0f1h-18" value="Megfigyelések kezelése" style="text;html=1;align=center;verticalAlign=middle;whiteSpace=wrap;rounded=0;" vertex="1" parent="yOpnhEGQ9VkILIJW0f1h-16">
          <mxGeometry x="30" y="25" width="60" height="30" as="geometry" />
        </mxCell>
        <mxCell id="yOpnhEGQ9VkILIJW0f1h-22" value="" style="group" vertex="1" connectable="0" parent="1">
          <mxGeometry x="340" y="660" width="120" height="80" as="geometry" />
        </mxCell>
        <mxCell id="yOpnhEGQ9VkILIJW0f1h-23" value="" style="ellipse;whiteSpace=wrap;html=1;" vertex="1" parent="yOpnhEGQ9VkILIJW0f1h-22">
          <mxGeometry width="120" height="80" as="geometry" />
        </mxCell>
        <mxCell id="yOpnhEGQ9VkILIJW0f1h-24" value="Felhasználói fiókadatok megtekintése" style="text;html=1;align=center;verticalAlign=middle;whiteSpace=wrap;rounded=0;" vertex="1" parent="yOpnhEGQ9VkILIJW0f1h-22">
          <mxGeometry x="30" y="25" width="60" height="30" as="geometry" />
        </mxCell>
        <mxCell id="yOpnhEGQ9VkILIJW0f1h-25" value="" style="group" vertex="1" connectable="0" parent="1">
          <mxGeometry x="340" y="820" width="120" height="80" as="geometry" />
        </mxCell>
        <mxCell id="yOpnhEGQ9VkILIJW0f1h-26" value="" style="ellipse;whiteSpace=wrap;html=1;" vertex="1" parent="yOpnhEGQ9VkILIJW0f1h-25">
          <mxGeometry width="120" height="80" as="geometry" />
        </mxCell>
        <mxCell id="yOpnhEGQ9VkILIJW0f1h-27" value="Jelszó módosítása" style="text;html=1;align=center;verticalAlign=middle;whiteSpace=wrap;rounded=0;" vertex="1" parent="yOpnhEGQ9VkILIJW0f1h-25">
          <mxGeometry x="30" y="25" width="60" height="30" as="geometry" />
        </mxCell>
        <mxCell id="yOpnhEGQ9VkILIJW0f1h-28" value="" style="group" vertex="1" connectable="0" parent="1">
          <mxGeometry x="190" y="780" width="120" height="80" as="geometry" />
        </mxCell>
        <mxCell id="yOpnhEGQ9VkILIJW0f1h-29" value="" style="ellipse;whiteSpace=wrap;html=1;" vertex="1" parent="yOpnhEGQ9VkILIJW0f1h-28">
          <mxGeometry width="120" height="80" as="geometry" />
        </mxCell>
        <mxCell id="yOpnhEGQ9VkILIJW0f1h-30" value="Kijelentkezés" style="text;html=1;align=center;verticalAlign=middle;whiteSpace=wrap;rounded=0;" vertex="1" parent="yOpnhEGQ9VkILIJW0f1h-28">
          <mxGeometry x="30" y="25" width="60" height="30" as="geometry" />
        </mxCell>
        <mxCell id="yOpnhEGQ9VkILIJW0f1h-31" value="" style="group" vertex="1" connectable="0" parent="1">
          <mxGeometry x="490" y="780" width="120" height="80" as="geometry" />
        </mxCell>
        <mxCell id="yOpnhEGQ9VkILIJW0f1h-32" value="" style="ellipse;whiteSpace=wrap;html=1;" vertex="1" parent="yOpnhEGQ9VkILIJW0f1h-31">
          <mxGeometry width="120" height="80" as="geometry" />
        </mxCell>
        <mxCell id="yOpnhEGQ9VkILIJW0f1h-33" value="Fiók törlése" style="text;html=1;align=center;verticalAlign=middle;whiteSpace=wrap;rounded=0;" vertex="1" parent="yOpnhEGQ9VkILIJW0f1h-31">
          <mxGeometry x="30" y="25" width="60" height="30" as="geometry" />
        </mxCell>
        <mxCell id="yOpnhEGQ9VkILIJW0f1h-34" value="" style="group" vertex="1" connectable="0" parent="1">
          <mxGeometry x="550" y="400" width="120" height="80" as="geometry" />
        </mxCell>
        <mxCell id="yOpnhEGQ9VkILIJW0f1h-35" value="" style="ellipse;whiteSpace=wrap;html=1;" vertex="1" parent="yOpnhEGQ9VkILIJW0f1h-34">
          <mxGeometry width="120" height="80" as="geometry" />
        </mxCell>
        <mxCell id="yOpnhEGQ9VkILIJW0f1h-36" value="Létrehozás" style="text;html=1;align=center;verticalAlign=middle;whiteSpace=wrap;rounded=0;" vertex="1" parent="yOpnhEGQ9VkILIJW0f1h-34">
          <mxGeometry x="30" y="25" width="60" height="30" as="geometry" />
        </mxCell>
        <mxCell id="yOpnhEGQ9VkILIJW0f1h-37" value="" style="group" vertex="1" connectable="0" parent="1">
          <mxGeometry x="240" y="520" width="120" height="80" as="geometry" />
        </mxCell>
        <mxCell id="yOpnhEGQ9VkILIJW0f1h-38" value="" style="ellipse;whiteSpace=wrap;html=1;" vertex="1" parent="yOpnhEGQ9VkILIJW0f1h-37">
          <mxGeometry width="120" height="80" as="geometry" />
        </mxCell>
        <mxCell id="yOpnhEGQ9VkILIJW0f1h-39" value="Listázás" style="text;html=1;align=center;verticalAlign=middle;whiteSpace=wrap;rounded=0;" vertex="1" parent="yOpnhEGQ9VkILIJW0f1h-37">
          <mxGeometry x="30" y="25" width="60" height="30" as="geometry" />
        </mxCell>
        <mxCell id="yOpnhEGQ9VkILIJW0f1h-41" value="" style="group" vertex="1" connectable="0" parent="1">
          <mxGeometry x="480" y="480" width="120" height="80" as="geometry" />
        </mxCell>
        <mxCell id="yOpnhEGQ9VkILIJW0f1h-42" value="" style="ellipse;whiteSpace=wrap;html=1;" vertex="1" parent="yOpnhEGQ9VkILIJW0f1h-41">
          <mxGeometry width="120" height="80" as="geometry" />
        </mxCell>
        <mxCell id="yOpnhEGQ9VkILIJW0f1h-43" value="Módosítás" style="text;html=1;align=center;verticalAlign=middle;whiteSpace=wrap;rounded=0;" vertex="1" parent="yOpnhEGQ9VkILIJW0f1h-41">
          <mxGeometry x="30" y="25" width="60" height="30" as="geometry" />
        </mxCell>
        <mxCell id="yOpnhEGQ9VkILIJW0f1h-44" value="" style="group" vertex="1" connectable="0" parent="1">
          <mxGeometry x="370" y="530" width="120" height="80" as="geometry" />
        </mxCell>
        <mxCell id="yOpnhEGQ9VkILIJW0f1h-45" value="" style="ellipse;whiteSpace=wrap;html=1;" vertex="1" parent="yOpnhEGQ9VkILIJW0f1h-44">
          <mxGeometry width="120" height="80" as="geometry" />
        </mxCell>
        <mxCell id="yOpnhEGQ9VkILIJW0f1h-46" value="Törlés" style="text;html=1;align=center;verticalAlign=middle;whiteSpace=wrap;rounded=0;" vertex="1" parent="yOpnhEGQ9VkILIJW0f1h-44">
          <mxGeometry x="30" y="25" width="60" height="30" as="geometry" />
        </mxCell>
        <mxCell id="yOpnhEGQ9VkILIJW0f1h-48" value="" style="endArrow=none;html=1;rounded=0;exitX=1;exitY=0.3333333333333333;exitDx=0;exitDy=0;exitPerimeter=0;entryX=0;entryY=0.5;entryDx=0;entryDy=0;" edge="1" parent="1" source="yOpnhEGQ9VkILIJW0f1h-4" target="yOpnhEGQ9VkILIJW0f1h-1">
          <mxGeometry width="50" height="50" relative="1" as="geometry">
            <mxPoint x="370" y="270" as="sourcePoint" />
            <mxPoint x="420" y="220" as="targetPoint" />
          </mxGeometry>
        </mxCell>
        <mxCell id="yOpnhEGQ9VkILIJW0f1h-49" value="" style="endArrow=none;html=1;rounded=0;exitX=1;exitY=0.3333333333333333;exitDx=0;exitDy=0;exitPerimeter=0;entryX=0;entryY=0.5;entryDx=0;entryDy=0;" edge="1" parent="1" source="yOpnhEGQ9VkILIJW0f1h-4" target="yOpnhEGQ9VkILIJW0f1h-8">
          <mxGeometry width="50" height="50" relative="1" as="geometry">
            <mxPoint x="370" y="270" as="sourcePoint" />
            <mxPoint x="420" y="220" as="targetPoint" />
          </mxGeometry>
        </mxCell>
        <mxCell id="yOpnhEGQ9VkILIJW0f1h-50" value="" style="endArrow=none;html=1;rounded=0;entryX=0.5;entryY=0;entryDx=0;entryDy=0;exitX=1;exitY=0.3333333333333333;exitDx=0;exitDy=0;exitPerimeter=0;" edge="1" parent="1" source="yOpnhEGQ9VkILIJW0f1h-4" target="yOpnhEGQ9VkILIJW0f1h-11">
          <mxGeometry width="50" height="50" relative="1" as="geometry">
            <mxPoint x="100" y="170" as="sourcePoint" />
            <mxPoint x="420" y="220" as="targetPoint" />
          </mxGeometry>
        </mxCell>
        <mxCell id="yOpnhEGQ9VkILIJW0f1h-51" value="" style="endArrow=none;html=1;rounded=0;exitX=1;exitY=0.3333333333333333;exitDx=0;exitDy=0;exitPerimeter=0;entryX=0;entryY=0.5;entryDx=0;entryDy=0;" edge="1" parent="1" source="yOpnhEGQ9VkILIJW0f1h-4" target="yOpnhEGQ9VkILIJW0f1h-14">
          <mxGeometry width="50" height="50" relative="1" as="geometry">
            <mxPoint x="380" y="380" as="sourcePoint" />
            <mxPoint x="430" y="330" as="targetPoint" />
          </mxGeometry>
        </mxCell>
        <mxCell id="yOpnhEGQ9VkILIJW0f1h-54" value="" style="endArrow=none;html=1;rounded=0;exitX=1;exitY=0.3333333333333333;exitDx=0;exitDy=0;exitPerimeter=0;entryX=0;entryY=0.5;entryDx=0;entryDy=0;" edge="1" parent="1" source="yOpnhEGQ9VkILIJW0f1h-6" target="yOpnhEGQ9VkILIJW0f1h-23">
          <mxGeometry width="50" height="50" relative="1" as="geometry">
            <mxPoint x="290" y="640" as="sourcePoint" />
            <mxPoint x="340" y="590" as="targetPoint" />
          </mxGeometry>
        </mxCell>
        <mxCell id="yOpnhEGQ9VkILIJW0f1h-57" value="" style="endArrow=none;html=1;rounded=0;exitX=1;exitY=0.3333333333333333;exitDx=0;exitDy=0;exitPerimeter=0;entryX=0;entryY=0;entryDx=0;entryDy=0;" edge="1" parent="1" source="yOpnhEGQ9VkILIJW0f1h-4" target="yOpnhEGQ9VkILIJW0f1h-17">
          <mxGeometry width="50" height="50" relative="1" as="geometry">
            <mxPoint x="380" y="570" as="sourcePoint" />
            <mxPoint x="430" y="520" as="targetPoint" />
          </mxGeometry>
        </mxCell>
        <mxCell id="yOpnhEGQ9VkILIJW0f1h-58" value="" style="endArrow=none;html=1;rounded=0;exitX=1;exitY=0.3333333333333333;exitDx=0;exitDy=0;exitPerimeter=0;entryX=0;entryY=1;entryDx=0;entryDy=0;" edge="1" parent="1" source="yOpnhEGQ9VkILIJW0f1h-6" target="yOpnhEGQ9VkILIJW0f1h-17">
          <mxGeometry width="50" height="50" relative="1" as="geometry">
            <mxPoint x="380" y="570" as="sourcePoint" />
            <mxPoint x="430" y="520" as="targetPoint" />
          </mxGeometry>
        </mxCell>
        <mxCell id="yOpnhEGQ9VkILIJW0f1h-66" value="" style="endArrow=open;html=1;rounded=0;endFill=0;endSize=10;startSize=10;dashed=1;entryX=1;entryY=1;entryDx=0;entryDy=0;exitX=0;exitY=0;exitDx=0;exitDy=0;" edge="1" parent="1" source="yOpnhEGQ9VkILIJW0f1h-32" target="yOpnhEGQ9VkILIJW0f1h-23">
          <mxGeometry relative="1" as="geometry">
            <mxPoint x="680" y="820" as="sourcePoint" />
            <mxPoint x="780" y="820" as="targetPoint" />
          </mxGeometry>
        </mxCell>
        <mxCell id="yOpnhEGQ9VkILIJW0f1h-67" value="&amp;lt;&amp;lt;extend&amp;gt;&amp;gt;" style="edgeLabel;resizable=0;html=1;;align=center;verticalAlign=middle;" connectable="0" vertex="1" parent="yOpnhEGQ9VkILIJW0f1h-66">
          <mxGeometry relative="1" as="geometry" />
        </mxCell>
        <mxCell id="yOpnhEGQ9VkILIJW0f1h-68" value="" style="endArrow=open;html=1;rounded=0;endFill=0;endSize=10;startSize=10;dashed=1;exitX=0.5;exitY=0;exitDx=0;exitDy=0;entryX=0.5;entryY=1;entryDx=0;entryDy=0;" edge="1" parent="1" source="yOpnhEGQ9VkILIJW0f1h-26" target="yOpnhEGQ9VkILIJW0f1h-23">
          <mxGeometry relative="1" as="geometry">
            <mxPoint x="510" y="740" as="sourcePoint" />
            <mxPoint x="381" y="738" as="targetPoint" />
          </mxGeometry>
        </mxCell>
        <mxCell id="yOpnhEGQ9VkILIJW0f1h-69" value="&amp;lt;&amp;lt;extend&amp;gt;&amp;gt;" style="edgeLabel;resizable=0;html=1;;align=center;verticalAlign=middle;" connectable="0" vertex="1" parent="yOpnhEGQ9VkILIJW0f1h-68">
          <mxGeometry relative="1" as="geometry" />
        </mxCell>
        <mxCell id="yOpnhEGQ9VkILIJW0f1h-71" value="" style="endArrow=open;html=1;rounded=0;endFill=0;endSize=10;startSize=10;dashed=1;exitX=0.013;exitY=0.376;exitDx=0;exitDy=0;entryX=0.989;entryY=0.601;entryDx=0;entryDy=0;entryPerimeter=0;exitPerimeter=0;" edge="1" parent="1" source="yOpnhEGQ9VkILIJW0f1h-35" target="yOpnhEGQ9VkILIJW0f1h-17">
          <mxGeometry relative="1" as="geometry">
            <mxPoint x="700" y="840" as="sourcePoint" />
            <mxPoint x="800" y="840" as="targetPoint" />
          </mxGeometry>
        </mxCell>
        <mxCell id="yOpnhEGQ9VkILIJW0f1h-72" value="&amp;lt;&amp;lt;extend&amp;gt;&amp;gt;" style="edgeLabel;resizable=0;html=1;;align=center;verticalAlign=middle;" connectable="0" vertex="1" parent="yOpnhEGQ9VkILIJW0f1h-71">
          <mxGeometry relative="1" as="geometry" />
        </mxCell>
        <mxCell id="yOpnhEGQ9VkILIJW0f1h-73" value="" style="endArrow=open;html=1;rounded=0;endFill=0;endSize=10;startSize=10;dashed=1;exitX=0.5;exitY=0;exitDx=0;exitDy=0;entryX=0.324;entryY=0.971;entryDx=0;entryDy=0;entryPerimeter=0;" edge="1" parent="1" source="yOpnhEGQ9VkILIJW0f1h-38" target="yOpnhEGQ9VkILIJW0f1h-17">
          <mxGeometry relative="1" as="geometry">
            <mxPoint x="710" y="850" as="sourcePoint" />
            <mxPoint x="810" y="850" as="targetPoint" />
          </mxGeometry>
        </mxCell>
        <mxCell id="yOpnhEGQ9VkILIJW0f1h-74" value="&amp;lt;&amp;lt;extend&amp;gt;&amp;gt;" style="edgeLabel;resizable=0;html=1;;align=center;verticalAlign=middle;" connectable="0" vertex="1" parent="yOpnhEGQ9VkILIJW0f1h-73">
          <mxGeometry relative="1" as="geometry" />
        </mxCell>
        <mxCell id="yOpnhEGQ9VkILIJW0f1h-75" value="" style="endArrow=open;html=1;rounded=0;endFill=0;endSize=10;startSize=10;dashed=1;exitX=0.5;exitY=0;exitDx=0;exitDy=0;entryX=0.679;entryY=0.959;entryDx=0;entryDy=0;entryPerimeter=0;" edge="1" parent="1" source="yOpnhEGQ9VkILIJW0f1h-45" target="yOpnhEGQ9VkILIJW0f1h-17">
          <mxGeometry relative="1" as="geometry">
            <mxPoint x="550" y="630" as="sourcePoint" />
            <mxPoint x="650" y="630" as="targetPoint" />
          </mxGeometry>
        </mxCell>
        <mxCell id="yOpnhEGQ9VkILIJW0f1h-76" value="&amp;lt;&amp;lt;extend&amp;gt;&amp;gt;" style="edgeLabel;resizable=0;html=1;;align=center;verticalAlign=middle;" connectable="0" vertex="1" parent="yOpnhEGQ9VkILIJW0f1h-75">
          <mxGeometry relative="1" as="geometry" />
        </mxCell>
        <mxCell id="yOpnhEGQ9VkILIJW0f1h-77" value="" style="endArrow=open;html=1;rounded=0;endFill=0;endSize=10;startSize=10;dashed=1;entryX=1;entryY=1;entryDx=0;entryDy=0;exitX=0.313;exitY=0.031;exitDx=0;exitDy=0;exitPerimeter=0;" edge="1" parent="1" source="yOpnhEGQ9VkILIJW0f1h-42" target="yOpnhEGQ9VkILIJW0f1h-17">
          <mxGeometry relative="1" as="geometry">
            <mxPoint x="560" y="640" as="sourcePoint" />
            <mxPoint x="660" y="640" as="targetPoint" />
          </mxGeometry>
        </mxCell>
        <mxCell id="yOpnhEGQ9VkILIJW0f1h-78" value="&amp;lt;&amp;lt;extend&amp;gt;&amp;gt;" style="edgeLabel;resizable=0;html=1;;align=center;verticalAlign=middle;" connectable="0" vertex="1" parent="yOpnhEGQ9VkILIJW0f1h-77">
          <mxGeometry relative="1" as="geometry" />
        </mxCell>
        <mxCell id="yOpnhEGQ9VkILIJW0f1h-79" value="" style="endArrow=none;html=1;rounded=0;exitX=1;exitY=0.3333333333333333;exitDx=0;exitDy=0;exitPerimeter=0;entryX=0;entryY=1;entryDx=0;entryDy=0;" edge="1" parent="1" source="yOpnhEGQ9VkILIJW0f1h-6" target="yOpnhEGQ9VkILIJW0f1h-14">
          <mxGeometry width="50" height="50" relative="1" as="geometry">
            <mxPoint x="270" y="490" as="sourcePoint" />
            <mxPoint x="320" y="440" as="targetPoint" />
          </mxGeometry>
        </mxCell>
        <mxCell id="yOpnhEGQ9VkILIJW0f1h-80" value="" style="endArrow=none;html=1;rounded=0;exitX=1;exitY=0.3333333333333333;exitDx=0;exitDy=0;exitPerimeter=0;entryX=0.5;entryY=1;entryDx=0;entryDy=0;" edge="1" parent="1" source="yOpnhEGQ9VkILIJW0f1h-6" target="yOpnhEGQ9VkILIJW0f1h-11">
          <mxGeometry width="50" height="50" relative="1" as="geometry">
            <mxPoint x="270" y="490" as="sourcePoint" />
            <mxPoint x="320" y="440" as="targetPoint" />
          </mxGeometry>
        </mxCell>
        <mxCell id="yOpnhEGQ9VkILIJW0f1h-82" value="Adatbázis" style="shape=umlActor;verticalLabelPosition=bottom;verticalAlign=top;html=1;outlineConnect=0;" vertex="1" parent="1">
          <mxGeometry x="1020" y="380" width="30" height="60" as="geometry" />
        </mxCell>
        <mxCell id="yOpnhEGQ9VkILIJW0f1h-83" value="" style="group" vertex="1" connectable="0" parent="1">
          <mxGeometry x="860" y="360" width="120" height="80" as="geometry" />
        </mxCell>
        <mxCell id="yOpnhEGQ9VkILIJW0f1h-84" value="" style="ellipse;whiteSpace=wrap;html=1;" vertex="1" parent="yOpnhEGQ9VkILIJW0f1h-83">
          <mxGeometry width="120" height="80" as="geometry" />
        </mxCell>
        <mxCell id="yOpnhEGQ9VkILIJW0f1h-85" value="Adatkezelés" style="text;html=1;align=center;verticalAlign=middle;whiteSpace=wrap;rounded=0;" vertex="1" parent="yOpnhEGQ9VkILIJW0f1h-83">
          <mxGeometry x="30" y="25" width="60" height="30" as="geometry" />
        </mxCell>
        <mxCell id="yOpnhEGQ9VkILIJW0f1h-86" value="" style="endArrow=none;html=1;rounded=0;entryX=0;entryY=0.3333333333333333;entryDx=0;entryDy=0;entryPerimeter=0;exitX=1;exitY=0.5;exitDx=0;exitDy=0;" edge="1" parent="1" source="yOpnhEGQ9VkILIJW0f1h-84" target="yOpnhEGQ9VkILIJW0f1h-82">
          <mxGeometry width="50" height="50" relative="1" as="geometry">
            <mxPoint x="860" y="510" as="sourcePoint" />
            <mxPoint x="910" y="460" as="targetPoint" />
          </mxGeometry>
        </mxCell>
        <mxCell id="yOpnhEGQ9VkILIJW0f1h-87" value="" style="endArrow=open;html=1;rounded=0;endFill=0;endSize=10;startSize=10;dashed=1;entryX=0;entryY=1;entryDx=0;entryDy=0;exitX=1;exitY=0.5;exitDx=0;exitDy=0;" edge="1" parent="1" source="yOpnhEGQ9VkILIJW0f1h-23" target="yOpnhEGQ9VkILIJW0f1h-84">
          <mxGeometry relative="1" as="geometry">
            <mxPoint x="680" y="790" as="sourcePoint" />
            <mxPoint x="780" y="790" as="targetPoint" />
          </mxGeometry>
        </mxCell>
        <mxCell id="yOpnhEGQ9VkILIJW0f1h-88" value="&amp;lt;&amp;lt;include&amp;gt;&amp;gt;" style="edgeLabel;resizable=0;html=1;;align=center;verticalAlign=middle;" connectable="0" vertex="1" parent="yOpnhEGQ9VkILIJW0f1h-87">
          <mxGeometry relative="1" as="geometry" />
        </mxCell>
        <mxCell id="yOpnhEGQ9VkILIJW0f1h-89" value="" style="endArrow=open;html=1;rounded=0;endFill=0;endSize=10;startSize=10;dashed=1;entryX=0;entryY=0.5;entryDx=0;entryDy=0;exitX=1;exitY=0.5;exitDx=0;exitDy=0;" edge="1" parent="1" source="yOpnhEGQ9VkILIJW0f1h-17" target="yOpnhEGQ9VkILIJW0f1h-84">
          <mxGeometry relative="1" as="geometry">
            <mxPoint x="690" y="800" as="sourcePoint" />
            <mxPoint x="790" y="800" as="targetPoint" />
          </mxGeometry>
        </mxCell>
        <mxCell id="yOpnhEGQ9VkILIJW0f1h-90" value="&amp;lt;&amp;lt;include&amp;gt;&amp;gt;" style="edgeLabel;resizable=0;html=1;;align=center;verticalAlign=middle;" connectable="0" vertex="1" parent="yOpnhEGQ9VkILIJW0f1h-89">
          <mxGeometry relative="1" as="geometry" />
        </mxCell>
        <mxCell id="yOpnhEGQ9VkILIJW0f1h-93" value="" style="endArrow=open;html=1;rounded=0;endFill=0;endSize=10;startSize=10;dashed=1;exitX=1;exitY=0.5;exitDx=0;exitDy=0;entryX=0.313;entryY=0.056;entryDx=0;entryDy=0;entryPerimeter=0;" edge="1" parent="1" source="yOpnhEGQ9VkILIJW0f1h-8" target="yOpnhEGQ9VkILIJW0f1h-84">
          <mxGeometry relative="1" as="geometry">
            <mxPoint x="710" y="820" as="sourcePoint" />
            <mxPoint x="810" y="820" as="targetPoint" />
          </mxGeometry>
        </mxCell>
        <mxCell id="yOpnhEGQ9VkILIJW0f1h-94" value="&amp;lt;&amp;lt;include&amp;gt;&amp;gt;" style="edgeLabel;resizable=0;html=1;;align=center;verticalAlign=middle;" connectable="0" vertex="1" parent="yOpnhEGQ9VkILIJW0f1h-93">
          <mxGeometry relative="1" as="geometry" />
        </mxCell>
        <mxCell id="yOpnhEGQ9VkILIJW0f1h-95" value="" style="endArrow=open;html=1;rounded=0;endFill=0;endSize=10;startSize=10;dashed=1;entryX=0.5;entryY=0;entryDx=0;entryDy=0;exitX=1;exitY=0.5;exitDx=0;exitDy=0;" edge="1" parent="1" source="yOpnhEGQ9VkILIJW0f1h-1" target="yOpnhEGQ9VkILIJW0f1h-84">
          <mxGeometry relative="1" as="geometry">
            <mxPoint x="720" y="830" as="sourcePoint" />
            <mxPoint x="820" y="830" as="targetPoint" />
          </mxGeometry>
        </mxCell>
        <mxCell id="yOpnhEGQ9VkILIJW0f1h-96" value="&amp;lt;&amp;lt;include&amp;gt;&amp;gt;" style="edgeLabel;resizable=0;html=1;;align=center;verticalAlign=middle;" connectable="0" vertex="1" parent="yOpnhEGQ9VkILIJW0f1h-95">
          <mxGeometry relative="1" as="geometry" />
        </mxCell>
        <mxCell id="yOpnhEGQ9VkILIJW0f1h-97" value="" style="endArrow=open;html=1;rounded=0;endFill=0;endSize=10;startSize=10;dashed=1;entryX=0.044;entryY=0.286;entryDx=0;entryDy=0;entryPerimeter=0;exitX=1;exitY=0.5;exitDx=0;exitDy=0;" edge="1" parent="1" source="yOpnhEGQ9VkILIJW0f1h-14" target="yOpnhEGQ9VkILIJW0f1h-84">
          <mxGeometry relative="1" as="geometry">
            <mxPoint x="730" y="840" as="sourcePoint" />
            <mxPoint x="830" y="840" as="targetPoint" />
          </mxGeometry>
        </mxCell>
        <mxCell id="yOpnhEGQ9VkILIJW0f1h-98" value="&amp;lt;&amp;lt;include&amp;gt;&amp;gt;" style="edgeLabel;resizable=0;html=1;;align=center;verticalAlign=middle;" connectable="0" vertex="1" parent="yOpnhEGQ9VkILIJW0f1h-97">
          <mxGeometry relative="1" as="geometry" />
        </mxCell>
        <mxCell id="yOpnhEGQ9VkILIJW0f1h-105" value="" style="endArrow=open;html=1;rounded=0;endFill=0;endSize=10;startSize=10;dashed=1;entryX=0;entryY=1;entryDx=0;entryDy=0;exitX=1;exitY=0;exitDx=0;exitDy=0;" edge="1" parent="1" source="yOpnhEGQ9VkILIJW0f1h-29" target="yOpnhEGQ9VkILIJW0f1h-23">
          <mxGeometry relative="1" as="geometry">
            <mxPoint x="560" y="860" as="sourcePoint" />
            <mxPoint x="391" y="748" as="targetPoint" />
          </mxGeometry>
        </mxCell>
        <mxCell id="yOpnhEGQ9VkILIJW0f1h-106" value="&amp;lt;&amp;lt;extend&amp;gt;&amp;gt;" style="edgeLabel;resizable=0;html=1;;align=center;verticalAlign=middle;" connectable="0" vertex="1" parent="yOpnhEGQ9VkILIJW0f1h-105">
          <mxGeometry relative="1" as="geometry" />
        </mxCell>
        <mxCell id="yOpnhEGQ9VkILIJW0f1h-107" value="" style="group" vertex="1" connectable="0" parent="1">
          <mxGeometry x="340" y="210" width="120" height="80" as="geometry" />
        </mxCell>
        <mxCell id="yOpnhEGQ9VkILIJW0f1h-108" value="" style="ellipse;whiteSpace=wrap;html=1;" vertex="1" parent="yOpnhEGQ9VkILIJW0f1h-107">
          <mxGeometry width="120" height="80" as="geometry" />
        </mxCell>
        <mxCell id="yOpnhEGQ9VkILIJW0f1h-109" value="Madárhatározás" style="text;html=1;align=center;verticalAlign=middle;whiteSpace=wrap;rounded=0;" vertex="1" parent="yOpnhEGQ9VkILIJW0f1h-107">
          <mxGeometry x="30" y="25" width="60" height="30" as="geometry" />
        </mxCell>
        <mxCell id="yOpnhEGQ9VkILIJW0f1h-4" value="Látogató" style="shape=umlActor;verticalLabelPosition=bottom;verticalAlign=top;html=1;outlineConnect=0;" vertex="1" parent="1">
          <mxGeometry x="60" y="90" width="30" height="60" as="geometry" />
        </mxCell>
        <mxCell id="yOpnhEGQ9VkILIJW0f1h-111" value="" style="endArrow=open;html=1;rounded=0;endFill=0;endSize=10;startSize=10;dashed=1;entryX=0.021;entryY=0.398;entryDx=0;entryDy=0;entryPerimeter=0;exitX=1;exitY=0.5;exitDx=0;exitDy=0;" edge="1" parent="1" source="yOpnhEGQ9VkILIJW0f1h-108" target="yOpnhEGQ9VkILIJW0f1h-84">
          <mxGeometry relative="1" as="geometry">
            <mxPoint x="470" y="60" as="sourcePoint" />
            <mxPoint x="875" y="393" as="targetPoint" />
          </mxGeometry>
        </mxCell>
        <mxCell id="yOpnhEGQ9VkILIJW0f1h-112" value="&amp;lt;&amp;lt;include&amp;gt;&amp;gt;" style="edgeLabel;resizable=0;html=1;;align=center;verticalAlign=middle;" connectable="0" vertex="1" parent="yOpnhEGQ9VkILIJW0f1h-111">
          <mxGeometry relative="1" as="geometry" />
        </mxCell>
        <mxCell id="yOpnhEGQ9VkILIJW0f1h-113" value="" style="endArrow=none;html=1;rounded=0;exitX=1;exitY=0.3333333333333333;exitDx=0;exitDy=0;exitPerimeter=0;entryX=0;entryY=1;entryDx=0;entryDy=0;" edge="1" parent="1" source="yOpnhEGQ9VkILIJW0f1h-6" target="yOpnhEGQ9VkILIJW0f1h-108">
          <mxGeometry width="50" height="50" relative="1" as="geometry">
            <mxPoint x="740" y="340" as="sourcePoint" />
            <mxPoint x="790" y="290" as="targetPoint" />
          </mxGeometry>
        </mxCell>
        <mxCell id="yOpnhEGQ9VkILIJW0f1h-114" value="" style="endArrow=none;html=1;rounded=0;exitX=1;exitY=0.3333333333333333;exitDx=0;exitDy=0;exitPerimeter=0;entryX=0.03;entryY=0.324;entryDx=0;entryDy=0;entryPerimeter=0;" edge="1" parent="1" source="yOpnhEGQ9VkILIJW0f1h-4" target="yOpnhEGQ9VkILIJW0f1h-108">
          <mxGeometry width="50" height="50" relative="1" as="geometry">
            <mxPoint x="700" y="340" as="sourcePoint" />
            <mxPoint x="750" y="290" as="targetPoint" />
          </mxGeometry>
        </mxCell>
      </root>
    </mxGraphModel>
  </diagram>
</mxfile>
